<?xml version="1.0" encoding="UTF-8"?>
<svg xmlns="http://www.w3.org/2000/svg" width="620" height="787" viewBox="0 0 620 787">
  <!-- Bug walk frame - authored from Unity таракан ref. White/gray line+fill. Transparent bg. -->
  <!-- frame 05 / contact=False bob=2.1 -->
  <g>
  <polyline points="255.0,337.1 260.8,375.1 279.7,414.9" fill="none" stroke="#ffffff" stroke-width="13" stroke-linecap="round" stroke-linejoin="round"/>
  <polyline points="260.8,375.1 279.7,414.9" fill="none" stroke="#888888" stroke-width="5" stroke-linecap="round" stroke-linejoin="round"/>
  <polyline points="279.7,414.9 272.7,425.9" fill="none" stroke="#ffffff" stroke-width="4" stroke-linecap="round"/>
  <polyline points="270.0,407.1 267.4,445.1 264.5,758.0" fill="none" stroke="#ffffff" stroke-width="13" stroke-linecap="round" stroke-linejoin="round"/>
  <polyline points="267.4,445.1 264.5,758.0" fill="none" stroke="#888888" stroke-width="5" stroke-linecap="round" stroke-linejoin="round"/>
  <polyline points="264.5,758.0 257.5,769.0" fill="none" stroke="#ffffff" stroke-width="4" stroke-linecap="round"/>
  <polyline points="285.0,482.1 283.3,520.1 277.9,567.3" fill="none" stroke="#ffffff" stroke-width="13" stroke-linecap="round" stroke-linejoin="round"/>
  <polyline points="283.3,520.1 277.9,567.3" fill="none" stroke="#888888" stroke-width="5" stroke-linecap="round" stroke-linejoin="round"/>
  <polyline points="277.9,567.3 270.9,578.3" fill="none" stroke="#ffffff" stroke-width="4" stroke-linecap="round"/>
  <polyline points="335.0,342.1 344.8,380.1 343.4,448.2" fill="none" stroke="#ffffff" stroke-width="13" stroke-linecap="round" stroke-linejoin="round"/>
  <polyline points="344.8,380.1 343.4,448.2" fill="none" stroke="#888888" stroke-width="5" stroke-linecap="round" stroke-linejoin="round"/>
  <polyline points="343.4,448.2 336.4,459.2" fill="none" stroke="#ffffff" stroke-width="4" stroke-linecap="round"/>
  <polyline points="352.0,412.1 351.2,450.1 353.0,758.0" fill="none" stroke="#ffffff" stroke-width="13" stroke-linecap="round" stroke-linejoin="round"/>
  <polyline points="351.2,450.1 353.0,758.0" fill="none" stroke="#888888" stroke-width="5" stroke-linecap="round" stroke-linejoin="round"/>
  <polyline points="353.0,758.0 346.0,769.0" fill="none" stroke="#ffffff" stroke-width="4" stroke-linecap="round"/>
  <polyline points="368.0,477.1 359.5,515.1 360.7,578.6" fill="none" stroke="#ffffff" stroke-width="13" stroke-linecap="round" stroke-linejoin="round"/>
  <polyline points="359.5,515.1 360.7,578.6" fill="none" stroke="#888888" stroke-width="5" stroke-linecap="round" stroke-linejoin="round"/>
  <polyline points="360.7,578.6 353.7,589.6" fill="none" stroke="#ffffff" stroke-width="4" stroke-linecap="round"/>
  <ellipse cx="310.0" cy="397.05724838302365" rx="98" ry="185" fill="#ffffff" stroke="#888888" stroke-width="9"/>
  <ellipse cx="310.0" cy="377.05724838302365" rx="72" ry="120" fill="none" stroke="#888888" stroke-width="7"/>
  <ellipse cx="315.44139693535067" cy="222.67442289793075" rx="72" ry="58" fill="#ffffff" stroke="#888888" stroke-width="9" transform="rotate(4.081047701512994 315.44139693535067 222.67442289793075)"/>
  <ellipse cx="293.44139693535067" cy="214.67442289793075" rx="16" ry="22" fill="#888888" stroke="none"/>
  <ellipse cx="337.44139693535067" cy="214.67442289793075" rx="16" ry="22" fill="#888888" stroke="none"/>
  <path d="M 277.44139693535067 204.67442289793075 Q 315.44139693535067 180.67442289793075 353.44139693535067 204.67442289793075" fill="none" stroke="#ffffff" stroke-width="5"/>
  <polyline points="263.44139693535067,192.67442289793075 247.44139693535067,167.67442289793075 267.44139693535067,184.67442289793075" fill="#ffffff" stroke="#888888" stroke-width="5"/>
  <polyline points="367.44139693535067,192.67442289793075 383.44139693535067,167.67442289793075 363.44139693535067,184.67442289793075" fill="#ffffff" stroke="#888888" stroke-width="5"/>
  <polyline points="302.0,174.67442289793075 296.0,104.67442289793075 309.05342302750967,38.550135010416405" fill="none" stroke="#ffffff" stroke-width="7" stroke-linecap="round"/>
  <polyline points="296.0,104.67442289793075 309.05342302750967,38.550135010416405" fill="none" stroke="#888888" stroke-width="3" stroke-linecap="round"/>
  <polyline points="328.0,187.67442289793075 356.0,132.67442289793075 365.1419353763394,100.90341643002537" fill="none" stroke="#ffffff" stroke-width="6" stroke-linecap="round"/>
  </g>
</svg>
